name C:\Users\antoi\Documents\MyRepositories\upper-imu-dc\Results\main_tracking\Case_74\kinematics.mot
datacolumns 43
datarows 11
range 3.30000000 3.50000000
endheader 
time	clav_prot	clav_elev	scapula_abduction	scapula_elevation	scapula_upward_rot	scapula_winging	plane_elv	shoulder_elv	axial_rot	TrapeziusScapula_M/activation	TrapeziusScapula_S/activation	TrapeziusScapula_I/activation	TrapeziusClavicle_S/activation	SerratusAnterior_I/activation	SerratusAnterior_M/activation	SerratusAnterior_S/activation	Rhomboideus_S/activation	Rhomboideus_I/activation	LevatorScapulae/activation	Coracobrachialis/activation	DeltoideusClavicle_A/activation	DeltoideusScapula_P/activation	DeltoideusScapula_M/activation	LatissimusDorsi_S/activation	LatissimusDorsi_M/activation	LatissimusDorsi_I/activation	PectoralisMajorClavicle_S/activation	PectoralisMajorThorax_I/activation	PectoralisMajorThorax_M/activation	TeresMajor/activation	Infraspinatus_I/activation	Infraspinatus_S/activation	PectoralisMinor/activation	TeresMinor/activation	Subscapularis_S/activation	Subscapularis_M/activation	Subscapularis_I/activation	Supraspinatus_P/activation	Supraspinatus_A/activation	TRIlong/activation	BIC_long/activation	BIC_brevis/activation	
          3.30000000	        -19.66363853	         -6.48713173	         -9.56911977	         -4.25499847	          8.22337151	          7.04034038	        -21.03796633	         24.54141494	         26.14074639	          0.01000002	          0.05393417	          0.01000000	          0.03319074	          0.03551378	          0.06056966	          0.01000001	          0.01563164	          0.01000009	          0.03661881	          0.01000005	          0.03256338	          0.01000000	          0.05348258	          0.01000000	          0.01000000	          0.01000002	          0.02752560	          0.01000000	          0.01000003	          0.01000000	          0.01838412	          0.02192092	          0.01000000	          0.01000006	          0.01000001	          0.01000001	          0.01000000	          0.01390267	          0.02392604	          0.01000000	          0.03616597	          0.01001259	
          3.32000000	        -19.83284131	         -6.40955408	         -9.73202076	         -4.28250680	          8.50432979	          6.96882918	        -21.05310452	         25.30107647	         25.05408390	          0.01000002	          0.05499278	          0.01000000	          0.03314114	          0.03623865	          0.06088408	          0.01000001	          0.01558125	          0.01000008	          0.03613846	          0.01000005	          0.03342346	          0.01000000	          0.05393887	          0.01000000	          0.01000000	          0.01000002	          0.02803307	          0.01000000	          0.01000004	          0.01000000	          0.01816047	          0.02172095	          0.01000000	          0.01000005	          0.01000001	          0.01000001	          0.01000000	          0.01422038	          0.02447964	          0.01000000	          0.03709239	          0.01057257	
          3.34000000	        -20.02433380	         -6.32263729	         -9.91182401	         -4.31581430	          8.82854445	          6.88540759	        -21.06103149	         26.06149594	         24.03697227	          0.01000002	          0.05604056	          0.01000000	          0.03309222	          0.03698818	          0.06135419	          0.01000001	          0.01555690	          0.01000007	          0.03577025	          0.01000006	          0.03434005	          0.01000000	          0.05451567	          0.01000000	          0.01000000	          0.01000002	          0.02857817	          0.01000000	          0.01000004	          0.01000000	          0.01800630	          0.02156942	          0.01000000	          0.01000005	          0.01000001	          0.01000001	          0.01000000	          0.01456612	          0.02508679	          0.01000000	          0.03810007	          0.01121177	
          3.36000000	        -20.23416732	         -6.22314900	        -10.10325680	         -4.35137171	          9.19349666	          6.78861505	        -21.05482241	         26.81849446	         23.08175447	          0.01000002	          0.05698912	          0.01000000	          0.03304079	          0.03768403	          0.06197789	          0.01000001	          0.01554158	          0.01000007	          0.03550061	          0.01000007	          0.03529139	          0.01000000	          0.05515521	          0.01000000	          0.01000000	          0.01000002	          0.02915004	          0.01000000	          0.01000004	          0.01000000	          0.01795107	          0.02148743	          0.01000000	          0.01000005	          0.01000001	          0.01000001	          0.01000000	          0.01493625	          0.02572486	          0.01000000	          0.03917500	          0.01189616	
          3.38000000	        -20.45779795	         -6.10881025	        -10.30042962	         -4.38603417	          9.59555510	          6.67759451	        -21.03000169	         27.56994644	         22.17490416	          0.01000002	          0.05776505	          0.01000000	          0.03297014	          0.03829160	          0.06271345	          0.01000001	          0.01553814	          0.01000007	          0.03535710	          0.01000016	          0.03624855	          0.01000000	          0.05580575	          0.01000000	          0.01000000	          0.01000002	          0.02972731	          0.01000000	          0.01000005	          0.01000000	          0.01801011	          0.02147116	          0.01000000	          0.01000005	          0.01000001	          0.01000001	          0.01000000	          0.01531999	          0.02638445	          0.01000000	          0.04024202	          0.01254636	
          3.40000000	        -20.69059278	         -5.97855019	        -10.49765651	         -4.41731654	         10.03004935	          6.55226939	        -20.98433914	         28.31541324	         21.30041841	          0.01000002	          0.05830173	          0.01000000	          0.03287996	          0.03872485	          0.06353767	          0.01000001	          0.01551446	          0.01000008	          0.03526818	          0.01000003	          0.03719267	          0.01000000	          0.05642098	          0.01000000	          0.01000000	          0.01000002	          0.03029609	          0.01000000	          0.01000006	          0.01000000	          0.01816323	          0.02149955	          0.01000000	          0.01000005	          0.01000001	          0.01000001	          0.01000000	          0.01570551	          0.02703539	          0.01000000	          0.04132368	          0.01321560	
          3.42000000	        -20.92838708	         -5.83276815	        -10.69039140	         -4.44363761	         10.49127477	          6.41351816	        -20.91696828	         29.05578519	         20.44364395	          0.01000002	          0.05860219	          0.01000000	          0.03275785	          0.03908583	          0.06435718	          0.01000001	          0.01550153	          0.01000007	          0.03528201	          0.01002600	          0.03811907	          0.01000000	          0.05707056	          0.01000000	          0.01000000	          0.01000002	          0.03084020	          0.01000000	          0.01000006	          0.01000000	          0.01835904	          0.02157014	          0.01000000	          0.01000005	          0.01000002	          0.01000001	          0.01000000	          0.01609816	          0.02768815	          0.01000000	          0.04233748	          0.01382413	
          3.44000000	        -21.16790219	         -5.67309466	        -10.87595996	         -4.46420000	         10.97261825	          6.26309754	        -20.82693798	         29.79281489	         19.59474217	          0.01000002	          0.05865179	          0.01000000	          0.03259174	          0.03926791	          0.06515501	          0.01000001	          0.01547501	          0.01000015	          0.03531486	          0.01047461	          0.03899735	          0.01000000	          0.05776130	          0.01000000	          0.01000000	          0.01000002	          0.03133167	          0.01000000	          0.01000014	          0.01000000	          0.01856100	          0.02161685	          0.01000000	          0.01000005	          0.01000002	          0.01000001	          0.01000000	          0.01648309	          0.02832205	          0.01000000	          0.04328535	          0.01435728	
          3.46000000	        -21.40685205	         -5.50198329	        -11.05354352	         -4.47883552	         11.46711137	          6.10334566	        -20.71299778	         30.52808971	         18.75072500	          0.01000002	          0.05848050	          0.01000000	          0.03242890	          0.03924166	          0.06593322	          0.01000001	          0.01539068	          0.01000002	          0.03527338	          0.01106824	          0.03981421	          0.01000000	          0.05846374	          0.01000000	          0.01000000	          0.01000002	          0.03173358	          0.01000000	          0.01000006	          0.01000000	          0.01871431	          0.02161659	          0.01000000	          0.01000005	          0.01000002	          0.01000001	          0.01000000	          0.01684341	          0.02889419	          0.01000000	          0.04423831	          0.01490964	
          3.48000000	        -21.64377091	         -5.32258930	        -11.22359860	         -4.48804969	         11.96797746	          5.93694947	        -20.57420036	         31.26291360	         17.91594556	          0.01000002	          0.05823544	          0.01000000	          0.03226630	          0.03947749	          0.06658823	          0.01000001	          0.01537819	          0.01009542	          0.03534686	          0.01141013	          0.04061057	          0.01000000	          0.05937367	          0.01000000	          0.01000000	          0.01000002	          0.03207731	          0.01000000	          0.01000336	          0.01000000	          0.01881522	          0.02161032	          0.01000000	          0.01000005	          0.01000002	          0.01000001	          0.01000000	          0.01722258	          0.02950529	          0.01000000	          0.04491636	          0.01523536	
          3.50000000	        -21.87748193	         -5.13836372	        -11.38700128	         -4.49268140	         12.46865676	          5.76672175	        -20.40972886	         31.99908868	         17.10021683	          0.01000002	          0.05792915	          0.01000000	          0.03203472	          0.03916458	          0.06747851	          0.01000001	          0.01513766	          0.01000001	          0.03506174	          0.01211789	          0.04131472	          0.01000000	          0.06025817	          0.01000000	          0.01000000	          0.01000002	          0.03233732	          0.01000000	          0.01017747	          0.01000000	          0.01883959	          0.02148124	          0.01000000	          0.01000004	          0.01000002	          0.01000001	          0.01000000	          0.01757631	          0.03003552	          0.01000000	          0.04604458	          0.01581716	
